<?xml version="1.0" encoding="UTF-8" standalone="no"?><!DOCTYPE svg PUBLIC "-//W3C//DTD SVG 1.1//EN" "http://www.w3.org/Graphics/SVG/1.1/DTD/svg11.dtd"><svg width="100%" height="100%" viewBox="0 0 6182 6182" version="1.1" xmlns="http://www.w3.org/2000/svg" xmlns:xlink="http://www.w3.org/1999/xlink" xml:space="preserve" xmlns:serif="http://www.serif.com/" style="fill-rule:evenodd;clip-rule:evenodd;stroke-linejoin:round;stroke-miterlimit:2;"><rect x="0" y="0" width="6181.25" height="6181.25" style="fill:#27c561;"/><path d="M1174.367,1143.671l0,3901.89l-815.387,0l0,-3901.89l815.387,0Zm1555.275,790.924l-2295.163,0l0,-790.924l2295.163,0l-0,790.924Zm-246.629,1587.12l-2068.667,0l0,-769.832l2068.667,0l0,769.832Z" style="fill-rule:nonzero;"/><path d="M3820.504,1095.37l0,4077.805l-852.148,0l0,-4077.805l852.148,0Zm725.904,2722.211l-936.311,0l0,-793.519l746.945,0c206.9,0 361.199,-46.84 462.895,-140.519c101.697,-93.679 152.545,-236.035 152.545,-427.067c0,-191.032 -50.848,-333.388 -152.545,-427.067c-101.697,-93.679 -255.995,-140.519 -462.895,-140.519l-746.945,0l0,-793.519l936.311,0c266.516,0 498.84,56.942 696.973,170.827c198.133,113.885 352.432,272.772 462.895,476.662c110.464,203.89 165.696,441.762 165.696,713.616c0,271.854 -55.232,509.726 -165.696,713.616c-110.464,203.89 -264.762,362.778 -462.895,476.662c-198.133,113.885 -430.458,170.827 -696.973,170.827Z" style="fill-rule:nonzero;"/></svg>