<?xml version="1.0" encoding="UTF-8" standalone="no"?><!DOCTYPE svg PUBLIC "-//W3C//DTD SVG 1.1//EN" "http://www.w3.org/Graphics/SVG/1.1/DTD/svg11.dtd"><svg width="100%" height="100%" viewBox="0 0 750 96" version="1.1" xmlns="http://www.w3.org/2000/svg" xmlns:xlink="http://www.w3.org/1999/xlink" xml:space="preserve" xmlns:serif="http://www.serif.com/" style="fill-rule:evenodd;clip-rule:evenodd;stroke-linejoin:round;stroke-miterlimit:2;"><g transform="matrix(0.189171,0,0,0.189171,-98.260781,-323.161871)"><g><g transform="matrix(522.121336,0,0,522.121336,533,2150)"><path d="M0.239,-0.74l0,0.74l-0.162,-0l0,-0.74l0.162,0Zm0.309,0.15l-0.456,0l0,-0.15l0.456,0l0,0.15Zm-0.049,0.301l-0.411,0l0,-0.146l0.411,0l0,0.146Z" style="fill:#fff;fill-rule:nonzero;"/></g><g transform="matrix(522.121336,0,0,522.121336,821.210978,2150)"><path d="M0.402,-0.5l0,0.145l-0.049,0c-0.044,0 -0.078,0.011 -0.103,0.032c-0.025,0.021 -0.038,0.057 -0.038,0.106l0,0.217l-0.154,-0l0,-0.499l0.145,0l0.012,0.107l-0.014,0c0.007,-0.033 0.022,-0.061 0.045,-0.083c0.024,-0.022 0.056,-0.032 0.097,-0.032c0.009,0 0.019,0 0.028,0.001c0.01,0.001 0.02,0.003 0.031,0.006Z" style="fill:#fff;fill-rule:nonzero;"/></g><g transform="matrix(522.121336,0,0,522.121336,1031.103755,2150)"><path d="M0.209,0.013c-0.053,0 -0.094,-0.015 -0.126,-0.043c-0.031,-0.029 -0.046,-0.068 -0.046,-0.116c0,-0.046 0.016,-0.083 0.048,-0.11c0.032,-0.027 0.077,-0.043 0.138,-0.048l0.14,-0.011l0,-0.008c-0,-0.017 -0.003,-0.031 -0.01,-0.041c-0.007,-0.011 -0.016,-0.019 -0.028,-0.025c-0.012,-0.006 -0.028,-0.009 -0.046,-0.009c-0.033,0 -0.057,0.006 -0.075,0.018c-0.017,0.012 -0.026,0.029 -0.026,0.052l-0.128,0c0,-0.038 0.01,-0.071 0.029,-0.099c0.019,-0.028 0.047,-0.05 0.083,-0.065c0.036,-0.015 0.077,-0.023 0.125,-0.023c0.049,0 0.09,0.009 0.123,0.026c0.034,0.017 0.059,0.043 0.077,0.076c0.018,0.033 0.027,0.074 0.027,0.122l0,0.292l-0.136,-0l-0.01,-0.066c-0.008,0.023 -0.027,0.042 -0.056,0.057c-0.03,0.015 -0.063,0.023 -0.101,0.023Zm0.054,-0.114c0.029,-0 0.053,-0.007 0.072,-0.021c0.019,-0.014 0.028,-0.036 0.028,-0.065l0,-0.027l-0.078,0.007c-0.033,0.003 -0.057,0.008 -0.071,0.017c-0.014,0.008 -0.02,0.02 -0.02,0.037c0,0.018 0.006,0.031 0.017,0.04c0.011,0.009 0.029,0.013 0.052,0.013Z" style="fill:#fff;fill-rule:nonzero;"/></g><g transform="matrix(522.121336,0,0,522.121336,1325.580188,2150)"><path d="M0.212,-0l-0.154,-0l0,-0.5l0.145,0l0.01,0.052c0.015,-0.021 0.037,-0.038 0.064,-0.05c0.027,-0.012 0.057,-0.018 0.089,-0.018c0.059,0 0.106,0.018 0.139,0.054c0.033,0.036 0.049,0.087 0.049,0.153l0,0.309l-0.154,-0l0,-0.272c0,-0.031 -0.008,-0.056 -0.024,-0.076c-0.016,-0.019 -0.037,-0.029 -0.064,-0.028c-0.031,-0 -0.055,0.009 -0.073,0.027c-0.018,0.018 -0.027,0.043 -0.027,0.075l0,0.274Z" style="fill:#fff;fill-rule:nonzero;"/></g><g transform="matrix(522.121336,0,0,522.121336,1641.985718,2150)"><path d="M0.212,-0l-0.154,-0l0,-0.754l0.154,0l0,0.434l0.162,-0.18l0.193,0l-0.188,0.198l0.182,0.302l-0.178,-0l-0.112,-0.187l-0.059,0.062l0,0.125Z" style="fill:#fff;fill-rule:nonzero;"/></g><g transform="matrix(522.121336,0,0,522.121336,1927.586089,2150)"><path d="M0.29,0.013c-0.05,0 -0.094,-0.011 -0.133,-0.034c-0.039,-0.023 -0.07,-0.054 -0.092,-0.093c-0.022,-0.04 -0.034,-0.085 -0.034,-0.137c0,-0.052 0.011,-0.098 0.033,-0.138c0.022,-0.04 0.052,-0.071 0.09,-0.093c0.039,-0.023 0.083,-0.034 0.133,-0.034c0.053,0 0.098,0.011 0.136,0.033c0.038,0.022 0.067,0.052 0.088,0.092c0.021,0.04 0.031,0.087 0.031,0.142l0,0.039l-0.43,0.002l0.002,-0.095l0.275,0c0,-0.027 -0.009,-0.048 -0.027,-0.064c-0.018,-0.016 -0.043,-0.024 -0.074,-0.024c-0.026,0 -0.047,0.005 -0.064,0.015c-0.016,0.01 -0.028,0.026 -0.037,0.046c-0.008,0.021 -0.012,0.048 -0.012,0.081c0,0.047 0.01,0.081 0.029,0.104c0.019,0.022 0.048,0.033 0.088,0.033c0.029,0 0.054,-0.005 0.073,-0.015c0.019,-0.01 0.032,-0.024 0.037,-0.042l0.141,0c-0.009,0.055 -0.036,0.1 -0.082,0.133c-0.046,0.033 -0.103,0.05 -0.172,0.05Z" style="fill:#fff;fill-rule:nonzero;"/></g><g transform="matrix(522.121336,0,0,522.121336,2227.805857,2150)"><path d="M0.212,-0l-0.154,-0l0,-0.5l0.145,0l0.01,0.052c0.015,-0.021 0.037,-0.038 0.064,-0.05c0.027,-0.012 0.057,-0.018 0.089,-0.018c0.059,0 0.106,0.018 0.139,0.054c0.033,0.036 0.049,0.087 0.049,0.153l0,0.309l-0.154,-0l0,-0.272c0,-0.031 -0.008,-0.056 -0.024,-0.076c-0.016,-0.019 -0.037,-0.029 -0.064,-0.028c-0.031,-0 -0.055,0.009 -0.073,0.027c-0.018,0.018 -0.027,0.043 -0.027,0.075l0,0.274Z" style="fill:#fff;fill-rule:nonzero;"/></g></g><g><g transform="matrix(522.121336,0,0,522.121336,2544.211387,2150)"><path d="M0.239,-0.74l0,0.74l-0.162,-0l0,-0.74l0.162,0Zm0.138,0.494l-0.178,0l0,-0.144l0.142,0c0.039,0 0.069,-0.009 0.088,-0.026c0.019,-0.017 0.029,-0.043 0.029,-0.077c0,-0.035 -0.01,-0.06 -0.029,-0.078c-0.019,-0.017 -0.049,-0.025 -0.088,-0.025l-0.142,0l0,-0.144l0.178,0c0.051,0 0.095,0.01 0.133,0.031c0.038,0.021 0.067,0.049 0.088,0.086c0.021,0.037 0.031,0.08 0.031,0.13c0,0.049 -0.01,0.092 -0.031,0.13c-0.021,0.037 -0.05,0.066 -0.088,0.086c-0.038,0.021 -0.082,0.031 -0.133,0.031Z" style="fill:#01d229;fill-rule:nonzero;"/></g><g transform="matrix(522.121336,0,0,522.121336,2885.67874,2150)"><path d="M0.402,-0.5l0,0.145l-0.049,0c-0.044,0 -0.078,0.011 -0.103,0.032c-0.025,0.021 -0.038,0.057 -0.038,0.106l0,0.217l-0.154,-0l0,-0.499l0.145,0l0.012,0.107l-0.014,0c0.007,-0.033 0.022,-0.061 0.045,-0.083c0.024,-0.022 0.056,-0.032 0.097,-0.032c0.009,0 0.019,0 0.028,0.001c0.01,0.001 0.02,0.003 0.031,0.006Z" style="fill:#01d229;fill-rule:nonzero;"/></g><g transform="matrix(522.121336,0,0,522.121336,3098.182124,2150)"><path d="M0.29,0.013c-0.05,0 -0.094,-0.011 -0.133,-0.034c-0.039,-0.023 -0.07,-0.054 -0.092,-0.093c-0.022,-0.04 -0.034,-0.085 -0.034,-0.137c0,-0.052 0.011,-0.098 0.033,-0.138c0.022,-0.04 0.052,-0.071 0.09,-0.093c0.039,-0.023 0.083,-0.034 0.133,-0.034c0.053,0 0.098,0.011 0.136,0.033c0.038,0.022 0.067,0.052 0.088,0.092c0.021,0.04 0.031,0.087 0.031,0.142l0,0.039l-0.43,0.002l0.002,-0.095l0.275,0c0,-0.027 -0.009,-0.048 -0.027,-0.064c-0.018,-0.016 -0.043,-0.024 -0.074,-0.024c-0.026,0 -0.047,0.005 -0.064,0.015c-0.016,0.01 -0.028,0.026 -0.037,0.046c-0.008,0.021 -0.012,0.048 -0.012,0.081c0,0.047 0.01,0.081 0.029,0.104c0.019,0.022 0.048,0.033 0.088,0.033c0.029,0 0.054,-0.005 0.073,-0.015c0.019,-0.01 0.032,-0.024 0.037,-0.042l0.141,0c-0.009,0.055 -0.036,0.1 -0.082,0.133c-0.046,0.033 -0.103,0.05 -0.172,0.05Z" style="fill:#01d229;fill-rule:nonzero;"/></g><g transform="matrix(522.121336,0,0,522.121336,3398.401892,2150)"><path d="M0.022,-0.158l0.146,0c0.001,0.017 0.008,0.031 0.021,0.041c0.013,0.01 0.031,0.015 0.054,0.015c0.024,-0 0.042,-0.004 0.053,-0.012c0.011,-0.008 0.017,-0.018 0.017,-0.031c0,-0.007 -0.003,-0.015 -0.009,-0.022c-0.006,-0.007 -0.018,-0.013 -0.036,-0.017l-0.092,-0.02c-0.046,-0.01 -0.08,-0.026 -0.103,-0.048c-0.023,-0.022 -0.034,-0.055 -0.034,-0.099c0,-0.035 0.009,-0.064 0.028,-0.089c0.018,-0.024 0.043,-0.043 0.075,-0.056c0.031,-0.013 0.067,-0.02 0.107,-0.02c0.039,0 0.073,0.007 0.103,0.021c0.03,0.014 0.053,0.034 0.069,0.059c0.017,0.025 0.025,0.055 0.025,0.089l-0.146,0c0,-0.017 -0.005,-0.031 -0.015,-0.041c-0.01,-0.01 -0.024,-0.016 -0.043,-0.016c-0.017,-0 -0.031,0.004 -0.041,0.013c-0.01,0.008 -0.015,0.019 -0.016,0.033c0,0.021 0.018,0.036 0.054,0.044l0.093,0.02c0.041,0.009 0.073,0.023 0.094,0.044c0.022,0.021 0.033,0.052 0.033,0.091c0,0.035 -0.009,0.066 -0.028,0.092c-0.019,0.026 -0.045,0.046 -0.078,0.06c-0.033,0.014 -0.072,0.021 -0.115,0.021c-0.066,0 -0.118,-0.016 -0.157,-0.048c-0.039,-0.032 -0.058,-0.073 -0.058,-0.123Z" style="fill:#01d229;fill-rule:nonzero;"/></g><g transform="matrix(522.121336,0,0,522.121336,3649.020134,2150)"><path d="M0.022,-0.158l0.146,0c0.001,0.017 0.008,0.031 0.021,0.041c0.013,0.01 0.031,0.015 0.054,0.015c0.024,-0 0.042,-0.004 0.053,-0.012c0.011,-0.008 0.017,-0.018 0.017,-0.031c0,-0.007 -0.003,-0.015 -0.009,-0.022c-0.006,-0.007 -0.018,-0.013 -0.036,-0.017l-0.092,-0.02c-0.046,-0.01 -0.08,-0.026 -0.103,-0.048c-0.023,-0.022 -0.034,-0.055 -0.034,-0.099c0,-0.035 0.009,-0.064 0.028,-0.089c0.018,-0.024 0.043,-0.043 0.075,-0.056c0.031,-0.013 0.067,-0.02 0.107,-0.02c0.039,0 0.073,0.007 0.103,0.021c0.03,0.014 0.053,0.034 0.069,0.059c0.017,0.025 0.025,0.055 0.025,0.089l-0.146,0c0,-0.017 -0.005,-0.031 -0.015,-0.041c-0.01,-0.01 -0.024,-0.016 -0.043,-0.016c-0.017,-0 -0.031,0.004 -0.041,0.013c-0.01,0.008 -0.015,0.019 -0.016,0.033c0,0.021 0.018,0.036 0.054,0.044l0.093,0.02c0.041,0.009 0.073,0.023 0.094,0.044c0.022,0.021 0.033,0.052 0.033,0.091c0,0.035 -0.009,0.066 -0.028,0.092c-0.019,0.026 -0.045,0.046 -0.078,0.06c-0.033,0.014 -0.072,0.021 -0.115,0.021c-0.066,0 -0.118,-0.016 -0.157,-0.048c-0.039,-0.032 -0.058,-0.073 -0.058,-0.123Z" style="fill:#01d229;fill-rule:nonzero;"/></g></g></g></svg>